<svg width="24" height="24" viewBox="0 0 24 24" fill="none" xmlns="http://www.w3.org/2000/svg">
<path d="M13.2727 9.90909C14.6309 9.90909 15.7191 8.81273 15.7191 7.45455C15.7191 6.09636 14.6309 5 13.2727 5C11.9145 5 10.8182 6.09636 10.8182 7.45455C10.8182 8.81273 11.9145 9.90909 13.2727 9.90909ZM6.72727 9.90909C8.08545 9.90909 9.17364 8.81273 9.17364 7.45455C9.17364 6.09636 8.08545 5 6.72727 5C5.36909 5 4.27273 6.09636 4.27273 7.45455C4.27273 8.81273 5.36909 9.90909 6.72727 9.90909ZM6.72727 11.5455C4.82091 11.5455 1 12.5027 1 14.4091V16.4545H12.4545V14.4091C12.4545 12.5027 8.63364 11.5455 6.72727 11.5455ZM13.2727 11.5455C13.0355 11.5455 12.7655 11.5618 12.4791 11.5864C13.4282 12.2736 14.0909 13.1982 14.0909 14.4091V16.4545H19V14.4091C19 12.5027 15.1791 11.5455 13.2727 11.5455Z" fill="white" fill-opacity="0.7"/>
</svg>
