<svg width="24" height="24" viewBox="0 0 24 24" fill="none" xmlns="http://www.w3.org/2000/svg">
<path d="M18.5437 12.5585C18.5822 12.2694 18.6015 11.9706 18.6015 11.6525C18.6015 11.3441 18.5822 11.0357 18.534 10.7466L20.4906 9.22375C20.664 9.08882 20.7122 8.8286 20.6062 8.63583L18.7557 5.43601C18.64 5.22397 18.3991 5.1565 18.1871 5.22397L15.8836 6.14922C15.4017 5.78298 14.8909 5.47456 14.3222 5.24325L13.9752 2.79518C13.9367 2.56387 13.7439 2.40002 13.5126 2.40002H9.81161C9.58029 2.40002 9.39717 2.56387 9.35862 2.79518L9.01165 5.24325C8.443 5.47456 7.92255 5.79261 7.45029 6.14922L5.1468 5.22397C4.93476 5.14686 4.69381 5.22397 4.57815 5.43601L2.73729 8.63583C2.62163 8.83823 2.66018 9.08882 2.85294 9.22375L4.80946 10.7466C4.76127 11.0357 4.72272 11.3538 4.72272 11.6525C4.72272 11.9513 4.742 12.2694 4.79019 12.5585L2.83367 14.0813C2.66018 14.2163 2.61199 14.4765 2.71801 14.6692L4.56851 17.8691C4.68417 18.0811 4.92512 18.1486 5.13716 18.0811L7.44065 17.1559C7.92255 17.5221 8.43337 17.8305 9.00201 18.0618L9.34898 20.5099C9.39717 20.7412 9.58029 20.9051 9.81161 20.9051H13.5126C13.7439 20.9051 13.9367 20.7412 13.9656 20.5099L14.3126 18.0618C14.8812 17.8305 15.4017 17.5221 15.8739 17.1559L18.1774 18.0811C18.3895 18.1582 18.6304 18.0811 18.7461 17.8691L20.5966 14.6692C20.7122 14.4572 20.664 14.2163 20.4809 14.0813L18.5437 12.5585ZM11.6621 15.1222C9.75378 15.1222 8.19242 13.5609 8.19242 11.6525C8.19242 9.74421 9.75378 8.18285 11.6621 8.18285C13.5704 8.18285 15.1318 9.74421 15.1318 11.6525C15.1318 13.5609 13.5704 15.1222 11.6621 15.1222Z" fill="white" fill-opacity="0.7"/>
</svg>
